# xmcd
#
# Track frame offsets:
#	150
#	25285
#	42852
#	68905
#	89107
#	106895
#	127295
#	148005
#	164297
#	191717
#	207170
#	224912
#	237040
#	252415
#	267755
#
# Disc length: 3819
#
# Revision: 4
# Processed by: cddbd v1.5.1PL0 Copyright (c) Steve Scherf et al.
# Submitted via: tcd 2.0b
# Normalized: r2:DSETVAR1,TDELIM( - ),TSWAP
#
DISCID=ec0ee90f
DTITLE=Various Artist - Music World - 30 Years - Disc 1
DYEAR=2000
DGENRE=Rock
TTITLE0=Free - All Right Now
TTITLE1=James Gang - Funk # 49
TTITLE2=Rod Stewart - Maggie May
TTITLE3=Moody Blues - Nights in White Satin
TTITLE4=BTO - You Ain't Seen Nothing Yet
TTITLE5=Ohio Players - Fire
TTITLE6=Elvin Bishop - Fooled Around and Fell In Love
TTITLE7=Joe Jackson - Is She Really Going Out with Him?
TTITLE8=Lipps Inc. - Funky Town
TTITLE9=The Buggles - Video Killed the Radio Star
TTITLE10=Squeeze - Tempted
TTITLE11=Soft Cell - Tainted Love
TTITLE12=ABC - Poison Arrow
TTITLE13=TRIO - Da Da Da
TTITLE14=Dan Hartman - I Can Dream About You
EXTD=YEAR: 2000 ID3G:  17
EXTT0=
EXTT1=
EXTT2=
EXTT3=
EXTT4=
EXTT5=
EXTT6=
EXTT7=
EXTT8=
EXTT9=
EXTT10=
EXTT11=
EXTT12=
EXTT13=
EXTT14=
PLAYORDER=
